<svg xmlns="http://www.w3.org/2000/svg" xmlns:xlink="http://www.w3.org/1999/xlink" width="328" height="64" version="1.1" viewBox="0 0 328 64"><desc>Created with Lunacy</desc><g id="Group-2"><g id="Group"><path id="Rectangle-2" fill="#1673FF" stroke="none" d="M10.3145 7.35304C23.7488 14.1881 36.9474 4.76048 47.3177 0.282355C57.6881 -4.19577 56.5097 46.006 44.0181 50.7199C31.5265 55.4337 32.9479 50.6457 26.8128 50.2485C21.7892 49.9233 15.8912 54.2092 9.84313 51.6627C-3.59118 46.0061 -3.11977 0.518029 10.3145 7.35304Z" transform="matrix(0.9743701 -0.224951 0.224951 0.9743701 0 12.39636)"/><path id="Rectangle-2-Copy" fill="#1673FF" stroke="none" d="M10.3145 7.35305C23.7488 14.1881 36.9474 4.76048 47.3177 0.282354C57.6881 -4.19576 56.5097 46.006 44.0181 50.7199C31.5265 55.4337 32.9479 50.6457 26.8128 50.2485C21.7892 49.9233 15.8912 54.2092 9.84313 51.6627C-3.59118 46.0061 -3.11977 0.518032 10.3145 7.35305Z" transform="matrix(-0.9743701 -0.2249511 -0.2249511 0.9743701 133.031 12.22009)"/></g><g id="borderpuppy" fill="#FFF"><path d="M10.175 13.7625Q11.9 13.7625 13.2625 14.625Q14.625 15.4875 15.4125 17.1Q16.2 18.7125 16.2 20.9125Q16.2 23.0875 15.4125 24.7125Q14.625 26.3375 13.2625 27.2Q11.9 28.0625 10.175 28.0625Q8.575 28.0625 7.425 27.3375Q6.275 26.6125 5.75 25.3625L5.75 27.8875L1.475 27.8875L1.475 9.3875L5.75 9.3875L5.75 16.4625Q6.275 15.2125 7.425 14.4875Q8.575 13.7625 10.175 13.7625ZM51.475 13.7625Q53.075 13.7625 54.225 14.4875Q55.375 15.2125 55.9 16.4625L55.9 9.3875L60.175 9.3875L60.175 27.8875L55.9 27.8875L55.9 25.3625Q55.375 26.6125 54.225 27.3375Q53.075 28.0625 51.475 28.0625Q49.75 28.0625 48.3875 27.2Q47.025 26.3375 46.2375 24.7125Q45.45 23.0875 45.45 20.9125Q45.45 18.7125 46.2375 17.1Q47.025 15.4875 48.3875 14.625Q49.75 13.7625 51.475 13.7625ZM25.25 13.7625Q27.325 13.7625 28.9625 14.625Q30.6 15.4875 31.5375 17.1125Q32.475 18.7375 32.475 20.9125Q32.475 23.0875 31.5375 24.7125Q30.6 26.3375 28.9625 27.2Q27.325 28.0625 25.25 28.0625Q23.175 28.0625 21.525 27.2Q19.875 26.3375 18.9375 24.7125Q18 23.0875 18 20.9125Q18 18.7375 18.9375 17.1125Q19.875 15.4875 21.525 14.625Q23.175 13.7625 25.25 13.7625ZM76.55 21.6875Q76.675 21.0625 76.675 20.5375Q76.675 18.5375 75.8125 17Q74.95 15.4625 73.375 14.6125Q71.8 13.7625 69.725 13.7625Q67.675 13.7625 66.075 14.625Q64.475 15.4875 63.5875 17.1Q62.7 18.7125 62.7 20.9125Q62.7 23.0875 63.6 24.7125Q64.5 26.3375 66.0875 27.2Q67.675 28.0625 69.725 28.0625Q71.475 28.0625 72.9 27.4Q74.325 26.7375 75.25 25.575Q76.175 24.4125 76.45 22.9375L71.925 22.9375Q71.725 23.6875 71.1 24.1625Q70.475 24.6375 69.525 24.6375Q68.4 24.6375 67.675 23.95Q66.95 23.2625 66.875 21.6875L76.55 21.6875ZM102.163 14.625Q100.8 13.7625 99.075 13.7625Q97.475 13.7625 96.325 14.4875Q95.175 15.2125 94.65 16.4625L94.65 13.9375L90.375 13.9375L90.375 34.5375L94.65 34.5375L94.65 25.3625Q95.175 26.6125 96.325 27.3375Q97.475 28.0625 99.075 28.0625Q100.8 28.0625 102.163 27.2Q103.525 26.3375 104.313 24.7125Q105.1 23.0875 105.1 20.9125Q105.1 18.7125 104.313 17.1Q103.525 15.4875 102.163 14.625ZM136.538 14.625Q135.175 13.7625 133.45 13.7625Q131.85 13.7625 130.7 14.4875Q129.55 15.2125 129.025 16.4625L129.025 13.9375L124.75 13.9375L124.75 34.5375L129.025 34.5375L129.025 25.3625Q129.55 26.6125 130.7 27.3375Q131.85 28.0625 133.45 28.0625Q135.175 28.0625 136.538 27.2Q137.9 26.3375 138.688 24.7125Q139.475 23.0875 139.475 20.9125Q139.475 18.7125 138.688 17.1Q137.9 15.4875 136.538 14.625ZM150.7 13.7625Q152.425 13.7625 153.787 14.625Q155.15 15.4875 155.938 17.1Q156.725 18.7125 156.725 20.9125Q156.725 23.0875 155.938 24.7125Q155.15 26.3375 153.787 27.2Q152.425 28.0625 150.7 28.0625Q149.1 28.0625 147.95 27.3375Q146.8 26.6125 146.275 25.3625L146.275 34.5375L142 34.5375L142 13.9375L146.275 13.9375L146.275 16.4625Q146.8 15.2125 147.95 14.4875Q149.1 13.7625 150.7 13.7625ZM41.3375 14.5375Q40.075 15.2875 39.275 16.5625L39.275 13.9375L35 13.9375L35 27.8875L39.275 27.8875L39.275 21.5375Q39.275 19.8125 40.2125 19.0875Q41.15 18.3625 42.85 18.3625L44.075 18.3625L44.075 13.7875Q42.6 13.7875 41.3375 14.5375ZM83.475 16.5625Q84.275 15.2875 85.5375 14.5375Q86.8 13.7875 88.275 13.7875L88.275 18.3625L87.05 18.3625Q85.35 18.3625 84.4125 19.0875Q83.475 19.8125 83.475 21.5375L83.475 27.8875L79.2 27.8875L79.2 13.9375L83.475 13.9375L83.475 16.5625ZM121.5 27.8875L117.2 27.8875L117.2 25.3625Q116.6 26.5875 115.413 27.3125Q114.225 28.0375 112.65 28.0375C111.05 28.0375 109.779 27.5042 108.838 26.4375Q107.425 24.8375 107.425 22.0375L107.425 13.9375L111.675 13.9375L111.675 21.5125Q111.675 22.9375 112.413 23.725Q113.15 24.5125 114.4 24.5125Q115.7 24.5125 116.45 23.6875Q117.2 22.8625 117.2 21.3375L117.2 13.9375L121.5 13.9375L121.5 27.8875ZM165.825 22.4875L162.475 13.9375L157.7 13.9375L163.55 27.3625L160.275 34.5375L164.975 34.5375L173.675 13.9375L168.95 13.9375L165.825 22.4875ZM71.6125 17.825Q72.375 18.5125 72.35 19.8875L66.9 19.8875Q67 18.5375 67.775 17.8375Q68.55 17.1375 69.725 17.1375Q70.85 17.1375 71.6125 17.825ZM25.25 17.4625Q24.025 17.4625 23.1875 18.35Q22.35 19.2375 22.35 20.9125Q22.35 22.5875 23.1875 23.4625Q24.025 24.3375 25.25 24.3375Q26.475 24.3375 27.3 23.4625Q28.125 22.5875 28.125 20.9125Q28.125 19.2375 27.3 18.35Q26.475 17.4625 25.25 17.4625ZM8.8 17.5125Q7.45 17.5125 6.5875 18.425Q5.725 19.3375 5.725 20.9125Q5.725 22.4625 6.5875 23.3875Q7.45 24.3125 8.8 24.3125Q10.175 24.3125 11.0125 23.4125Q11.85 22.5125 11.85 20.9125Q11.85 19.3125 11.0125 18.4125Q10.175 17.5125 8.8 17.5125ZM52.85 17.5125Q51.475 17.5125 50.6375 18.4125Q49.8 19.3125 49.8 20.9125Q49.8 22.5125 50.6375 23.4125Q51.475 24.3125 52.85 24.3125Q54.2 24.3125 55.0625 23.3875Q55.925 22.4625 55.925 20.9125Q55.925 19.3375 55.0625 18.425Q54.2 17.5125 52.85 17.5125ZM95.4875 18.425Q96.35 17.5125 97.7 17.5125Q99.075 17.5125 99.9125 18.4125Q100.75 19.3125 100.75 20.9125Q100.75 22.5125 99.9125 23.4125Q99.075 24.3125 97.7 24.3125Q96.35 24.3125 95.4875 23.3875Q94.625 22.4625 94.625 20.9125Q94.625 19.3375 95.4875 18.425ZM129.863 18.425Q130.725 17.5125 132.075 17.5125Q133.45 17.5125 134.288 18.4125Q135.125 19.3125 135.125 20.9125Q135.125 22.5125 134.288 23.4125Q133.45 24.3125 132.075 24.3125Q130.725 24.3125 129.863 23.3875Q129 22.4625 129 20.9125Q129 19.3375 129.863 18.425ZM149.325 17.5125Q147.975 17.5125 147.112 18.425Q146.25 19.3375 146.25 20.9125Q146.25 22.4625 147.112 23.3875Q147.975 24.3125 149.325 24.3125Q150.7 24.3125 151.537 23.4125Q152.375 22.5125 152.375 20.9125Q152.375 19.3125 151.537 18.4125Q150.7 17.5125 149.325 17.5125Z" transform="translate(146.0056 12.91272)"/></g></g></svg>