<?xml version="1.0" encoding="utf-8"?>
<svg width="1920px" height="1080px" viewBox="0 0 1920 1080" version="1.1" xmlns:xlink="http://www.w3.org/1999/xlink" xmlns="http://www.w3.org/2000/svg">
  <desc>Created with Lunacy</desc>
  <defs>
    <rect width="1920" height="1080" id="artboard_1" />
    <clipPath id="clip_1">
      <use xlink:href="#artboard_1" clip-rule="evenodd" />
    </clipPath>
  </defs>
  <g id="Full-HD" clip-path="url(#clip_1)">
    <use xlink:href="#artboard_1" stroke="none" fill="#FFFFFF" fill-opacity="0" />
    <path d="M0.300494 462C0.300494 462 -22.2671 295.746 323.745 298.387C669.756 301.028 862.572 337.146 960.3 224C1058.03 110.854 1327.44 44.8209 1433.09 92.3645C1538.75 139.908 1697.23 150.473 1779.11 87.0819C1860.99 23.6904 1920.3 0 1920.3 0L1920.3 46.9999" transform="translate(-0.3004941 684.0001)" id="New-shape" fill="none" stroke="#272E3C" stroke-opacity="0.768627465" stroke-width="1" />
    <path d="M0.300494 462C0.300494 462 -22.2671 295.746 323.745 298.387C669.756 301.028 862.572 337.146 960.3 224C1058.03 110.854 1327.44 44.8209 1433.09 92.3645C1538.75 139.908 1697.23 150.473 1779.11 87.0819C1860.99 23.6904 1920.3 0 1920.3 0L1920.3 46.9999" transform="translate(-0.3005941 506.9999)" id="New-shape-Copy" fill="none" stroke="#272E3C" stroke-opacity="0.768627465" stroke-width="1" />
    <path d="M0.300494 462C0.300494 462 -22.2671 295.746 323.745 298.387C669.756 301.028 862.572 337.146 960.3 224C1058.03 110.854 1327.44 44.8209 1433.09 92.3645C1538.75 139.908 1697.23 150.473 1779.11 87.0819C1860.99 23.6904 1920.3 0 1920.3 0L1920.3 46.9999" transform="translate(-0.3005941 605.9999)" id="New-shape-Copy-2" fill="none" stroke="#272E3C" stroke-opacity="0.768627465" stroke-width="1" />
    <path d="M0.300494 462C0.300494 462 -22.2671 295.746 323.745 298.387C669.756 301.028 862.572 337.146 960.3 224C1058.03 110.854 1327.44 44.8209 1433.09 92.3645C1538.75 139.908 1697.23 150.473 1779.11 87.0819C1860.99 23.6904 1920.3 0 1920.3 0L1920.3 46.9999" transform="translate(-0.3004941 441.0001)" id="New-shape-Copy-3" fill="none" stroke="#272E3C" stroke-opacity="0.768627465" stroke-width="1" />
    <path d="M0.300494 462C0.300494 462 -22.2671 295.746 323.745 298.387C669.756 301.028 862.572 337.146 960.3 224C1058.03 110.854 1327.44 44.8209 1433.09 92.3645C1538.75 139.908 1697.23 150.473 1779.11 87.0819C1860.99 23.6904 1920.3 0 1920.3 0L1920.3 46.9999" transform="translate(-0.3005941 263.9999)" id="New-shape-Copy-4" fill="none" stroke="#272E3C" stroke-opacity="0.768627465" stroke-width="1" />
    <path d="M0.300494 462C0.300494 462 -22.2671 295.746 323.745 298.387C669.756 301.028 862.572 337.146 960.3 224C1058.03 110.854 1327.44 44.8209 1433.09 92.3645C1538.75 139.908 1697.23 150.473 1779.11 87.0819C1860.99 23.6904 1920.3 0 1920.3 0L1920.3 46.9999" transform="translate(-0.3005941 362.9999)" id="New-shape-Copy-5" fill="none" stroke="#272E3C" stroke-opacity="0.768627465" stroke-width="1" />
    <path d="M0.300494 462C0.300494 462 -22.2671 295.746 323.745 298.387C669.756 301.028 862.572 337.146 960.3 224C1058.03 110.854 1327.44 44.8209 1433.09 92.3645C1538.75 139.908 1697.23 150.473 1779.11 87.0819C1860.99 23.6904 1920.3 0 1920.3 0L1920.3 46.9999" transform="translate(-0.3004941 186.0001)" id="New-shape-Copy-6" fill="none" stroke="#272E3C" stroke-opacity="0.768627465" stroke-width="1" />
    <path d="M0.300494 462C0.300494 462 -22.2671 295.746 323.745 298.387C669.756 301.028 862.572 337.146 960.3 224C1058.03 110.854 1327.44 44.8209 1433.09 92.3645C1538.75 139.908 1697.23 150.473 1779.11 87.0819C1860.99 23.6904 1920.3 0 1920.3 0L1920.3 46.9999" transform="translate(-0.3005941 8.999939)" id="New-shape-Copy-7" fill="none" stroke="#272E3C" stroke-opacity="0.768627465" stroke-width="1" />
    <path d="M0.300494 462C0.300494 462 -22.2671 295.746 323.745 298.387C669.756 301.028 862.572 337.146 960.3 224C1058.03 110.854 1327.44 44.8209 1433.09 92.3645C1538.75 139.908 1697.23 150.473 1779.11 87.0819C1860.99 23.6904 1920.3 0 1920.3 0L1920.3 46.9999" transform="translate(-0.3005941 107.9999)" id="New-shape-Copy-8" fill="none" stroke="#272E3C" stroke-opacity="0.768627465" stroke-width="1" />
    <path d="M0.300494 462C0.300494 462 -22.2671 295.746 323.745 298.387C669.756 301.028 862.572 337.146 960.3 224C1058.03 110.854 1327.44 44.8209 1433.09 92.3645C1538.75 139.908 1697.23 150.473 1779.11 87.0819C1860.99 23.6904 1920.3 0 1920.3 0L1920.3 46.9999" transform="translate(-0.3004941 -56.99994)" id="New-shape-Copy-9" fill="none" stroke="#272E3C" stroke-opacity="0.768627465" stroke-width="1" />
    <path d="M0.300494 462C0.300494 462 -22.2671 295.746 323.745 298.387C669.756 301.028 862.572 337.146 960.3 224C1058.03 110.854 1327.44 44.8209 1433.09 92.3645C1538.75 139.908 1697.23 150.473 1779.11 87.0819C1860.99 23.6904 1920.3 0 1920.3 0L1920.3 46.9999" transform="translate(-0.3005941 -234.0001)" id="New-shape-Copy-10" fill="none" stroke="#272E3C" stroke-opacity="0.768627465" stroke-width="1" />
    <path d="M0.300494 462C0.300494 462 -22.2671 295.746 323.745 298.387C669.756 301.028 862.572 337.146 960.3 224C1058.03 110.854 1327.44 44.8209 1433.09 92.3645C1538.75 139.908 1697.23 150.473 1779.11 87.0819C1860.99 23.6904 1920.3 0 1920.3 0L1920.3 46.9999" transform="translate(-0.3005941 -135.0001)" id="New-shape-Copy-11" fill="none" stroke="#272E3C" stroke-opacity="0.768627465" stroke-width="1" />
  </g>
</svg>