<svg xmlns="http://www.w3.org/2000/svg" xmlns:xlink="http://www.w3.org/1999/xlink" width="1000" height="1000" version="1.1" viewBox="0 0 1000 1000"><desc>Created with Lunacy</desc><defs><rect id="artboard_1" width="1000" height="1000"/><clipPath id="clip_1"><use clip-rule="evenodd" xlink:href="#artboard_1"/></clipPath></defs><g id="Artboard" clip-path="url(#clip_1)"><use fill="#020A18" fill-opacity="0" stroke="none" xlink:href="#artboard_1"/><g id="Group-2" transform="translate(-29.99997 -38)"><g id="Group"><path id="Rectangle" fill="#1673FF" stroke="none" d="M44.4185 0.269131C60.8227 -0.849317 81.4464 1.08287 94.6806 14.448C119.555 39.5688 131.869 74.0482 103.547 78.4813C75.2243 82.9144 33.849 91.7805 8.97449 66.6598C-3.45873 54.1035 -1.00154 38.5937 4.56676 26.22C10.4593 13.1259 30.0929 1.24586 44.4185 0.269131Z" transform="matrix(0.9455186 0.3255681 -0.3255681 0.9455186 27.24405 7.629395E-06)"/><path id="Rectangle-Copy" fill="#74ACFF" stroke="none" d="M50.4551 1.14696C73.1033 -1.54068 105.613 -0.946216 125.515 19.1533C158.491 52.4552 174.815 98.1636 137.269 104.04C99.7227 109.917 44.8727 121.671 11.8972 88.369C-7.2351 69.0472 0.229951 44.45 9.86936 27.2033C16.8748 14.6693 36.1963 2.83904 50.4551 1.14696Z" transform="matrix(0.9455186 0.3255681 -0.3255681 0.9455186 173.1047 7.629395E-06)"/><path id="Rectangle-Copy-2" fill="#1673FF" stroke="none" d="M42.2683 0.0751664C56.2004 -0.469474 72.7588 1.76469 83.6512 12.765C105.628 34.9594 116.508 65.4223 91.4845 69.339C66.4614 73.2557 29.9059 81.089 7.92905 58.8946C-2.13852 48.7273 -1.15571 36.3683 2.86587 25.9592C8.04066 12.5653 27.9204 0.636062 42.2683 0.0751664Z" transform="matrix(0.9455186 0.3255681 -0.3255681 0.9455186 318.9653 7.629395E-06)"/><path id="Rectangle-Copy-3" fill="#74ACFF" stroke="none" d="M46.471 0.525446C65.1019 -1.13646 89.6978 0.41068 105.185 16.0509C132.819 43.9587 146.499 82.2633 115.035 87.1882C83.5699 92.1131 37.6043 101.963 9.97015 74.0552C-4.73084 59.2087 -0.693071 40.6454 6.30645 26.5216C12.6824 13.656 32.1689 1.80121 46.471 0.525446Z" transform="matrix(0.9455186 0.3255681 -0.3255681 0.9455186 448.4541 0)"/><path id="Rectangle-Copy-4" fill="#1673FF" stroke="none" d="M46.4709 0.525442C65.1018 -1.13647 89.6977 0.41067 105.185 16.0509C132.819 43.9586 146.499 82.2633 115.034 87.1882C83.5698 92.1131 37.6042 101.963 9.97015 74.0552C-4.73087 59.2087 -0.69311 40.6454 6.30641 26.5216C12.6824 13.656 32.1689 1.80121 46.4709 0.525442Z" transform="matrix(-0.9455186 0.3255682 0.3255682 0.9455186 705.5092 1.525879E-05)"/></g><g id="Group-Copy" transform="translate(743.7758 0)"><path id="Rectangle" fill="#1673FF" stroke="none" d="M44.4185 0.269131C60.8227 -0.849317 81.4464 1.08287 94.6806 14.448C119.555 39.5688 131.869 74.0482 103.547 78.4813C75.2243 82.9144 33.849 91.7805 8.97449 66.6598C-3.45873 54.1035 -1.00154 38.5937 4.56676 26.22C10.4593 13.1259 30.0929 1.24586 44.4185 0.269131Z" transform="matrix(0.9455186 0.3255681 -0.3255681 0.9455186 27.24402 7.629395E-06)"/><path id="Rectangle-Copy" fill="#74ACFF" stroke="none" d="M50.4551 1.14696C73.1033 -1.54068 105.613 -0.946216 125.515 19.1533C158.491 52.4552 174.815 98.1636 137.269 104.04C99.7227 109.917 44.8727 121.671 11.8972 88.369C-7.2351 69.0472 0.229951 44.45 9.86936 27.2033C16.8748 14.6693 36.1963 2.83904 50.4551 1.14696Z" transform="matrix(0.9455186 0.3255681 -0.3255681 0.9455186 173.1047 7.629395E-06)"/></g></g><g id="Group-2-Copy-2" transform="translate(8 126.6075)"><g id="Group"><path id="Rectangle" fill="#1673FF" stroke="none" d="M44.4185 0.269131C60.8227 -0.849317 81.4464 1.08287 94.6806 14.448C119.555 39.5688 131.869 74.0482 103.547 78.4813C75.2243 82.9144 33.849 91.7805 8.97449 66.6598C-3.45873 54.1035 -1.00154 38.5937 4.56676 26.22C10.4593 13.1259 30.0929 1.24586 44.4185 0.269131Z" transform="matrix(0.9455186 0.3255681 -0.3255681 0.9455186 27.24405 7.629395E-06)"/><path id="Rectangle-Copy" fill="#74ACFF" stroke="none" d="M50.4551 1.14696C73.1033 -1.54068 105.613 -0.946216 125.515 19.1533C158.491 52.4552 174.815 98.1636 137.269 104.04C99.7227 109.917 44.8727 121.671 11.8972 88.369C-7.2351 69.0472 0.229951 44.45 9.86936 27.2033C16.8748 14.6693 36.1963 2.83904 50.4551 1.14696Z" transform="matrix(0.9455186 0.3255681 -0.3255681 0.9455186 173.1047 7.629395E-06)"/><path id="Rectangle-Copy-2" fill="#1673FF" stroke="none" d="M42.2683 0.0751664C56.2004 -0.469474 72.7588 1.76469 83.6512 12.765C105.628 34.9594 116.508 65.4223 91.4845 69.339C66.4614 73.2557 29.9059 81.089 7.92905 58.8946C-2.13852 48.7273 -1.15571 36.3683 2.86587 25.9592C8.04066 12.5653 27.9204 0.636062 42.2683 0.0751664Z" transform="matrix(0.9455186 0.3255681 -0.3255681 0.9455186 318.9653 7.629395E-06)"/><path id="Rectangle-Copy-3" fill="#74ACFF" stroke="none" d="M46.471 0.525446C65.1019 -1.13646 89.6978 0.41068 105.185 16.0509C132.819 43.9587 146.499 82.2633 115.035 87.1882C83.5699 92.1131 37.6043 101.963 9.97015 74.0552C-4.73084 59.2087 -0.693071 40.6454 6.30645 26.5216C12.6824 13.656 32.1689 1.80121 46.471 0.525446Z" transform="matrix(0.9455186 0.3255681 -0.3255681 0.9455186 448.4541 0)"/><path id="Rectangle-Copy-4" fill="#1673FF" stroke="none" d="M46.4709 0.525442C65.1018 -1.13647 89.6977 0.41067 105.185 16.0509C132.819 43.9586 146.499 82.2633 115.034 87.1882C83.5698 92.1131 37.6042 101.963 9.97015 74.0552C-4.73087 59.2087 -0.69311 40.6454 6.30641 26.5216C12.6824 13.656 32.1689 1.80121 46.4709 0.525442Z" transform="matrix(-0.9455186 0.3255682 0.3255682 0.9455186 705.5092 1.525879E-05)"/></g><g id="Group-Copy" transform="translate(743.7758 0)"><path id="Rectangle" fill="#1673FF" stroke="none" d="M44.4185 0.269131C60.8227 -0.849317 81.4464 1.08287 94.6806 14.448C119.555 39.5688 131.869 74.0482 103.547 78.4813C75.2243 82.9144 33.849 91.7805 8.97449 66.6598C-3.45873 54.1035 -1.00154 38.5937 4.56676 26.22C10.4593 13.1259 30.0929 1.24586 44.4185 0.269131Z" transform="matrix(0.9455186 0.3255681 -0.3255681 0.9455186 27.24402 7.629395E-06)"/><path id="Rectangle-Copy" fill="#74ACFF" stroke="none" d="M50.4551 1.14696C73.1033 -1.54068 105.613 -0.946216 125.515 19.1533C158.491 52.4552 174.815 98.1636 137.269 104.04C99.7227 109.917 44.8727 121.671 11.8972 88.369C-7.2351 69.0472 0.229951 44.45 9.86936 27.2033C16.8748 14.6693 36.1963 2.83904 50.4551 1.14696Z" transform="matrix(0.9455186 0.3255681 -0.3255681 0.9455186 173.1047 7.629395E-06)"/></g></g><g id="Group-2-Copy" transform="translate(-189 283.0001)"><g id="Group"><path id="Rectangle-Copy" fill="#74ACFF" stroke="none" d="M50.4551 1.14696C73.1033 -1.54068 105.613 -0.946216 125.515 19.1533C158.491 52.4552 174.815 98.1636 137.269 104.04C99.7227 109.917 44.8727 121.671 11.8972 88.369C-7.2351 69.0472 0.229951 44.45 9.86936 27.2033C16.8748 14.6693 36.1963 2.83904 50.4551 1.14696Z" transform="matrix(0.9455186 0.3255681 -0.3255681 0.9455186 173.1047 0)"/><path id="Rectangle-Copy-2" fill="#1673FF" stroke="none" d="M42.2683 0.0751664C56.2004 -0.469474 72.7588 1.76469 83.6512 12.765C105.628 34.9594 116.508 65.4223 91.4845 69.339C66.4614 73.2557 29.9059 81.089 7.92905 58.8946C-2.13852 48.7273 -1.15571 36.3683 2.86587 25.9592C8.04066 12.5653 27.9204 0.636062 42.2683 0.0751664Z" transform="matrix(0.9455186 0.3255681 -0.3255681 0.9455186 318.9653 0)"/><path id="Rectangle-Copy-3" fill="#74ACFF" stroke="none" d="M46.471 0.525446C65.1019 -1.13646 89.6978 0.41068 105.185 16.0509C132.819 43.9587 146.499 82.2633 115.035 87.1882C83.5699 92.1131 37.6043 101.963 9.97015 74.0552C-4.73084 59.2087 -0.693071 40.6454 6.30645 26.5216C12.6824 13.656 32.1689 1.80121 46.471 0.525446Z" transform="matrix(0.9455186 0.3255681 -0.3255681 0.9455186 448.4541 0)"/><path id="Rectangle-Copy-4" fill="#1673FF" stroke="none" d="M46.4709 0.525442C65.1018 -1.13647 89.6977 0.41067 105.185 16.0509C132.819 43.9586 146.499 82.2633 115.034 87.1882C83.5698 92.1131 37.6042 101.963 9.97015 74.0552C-4.73087 59.2087 -0.69311 40.6454 6.30641 26.5216C12.6824 13.656 32.1689 1.80121 46.4709 0.525442Z" transform="matrix(-0.9455186 0.3255682 0.3255682 0.9455186 705.5092 0)"/></g><g id="Group-Copy" transform="translate(743.7758 0)"><path id="Rectangle" fill="#1673FF" stroke="none" d="M44.4185 0.269131C60.8227 -0.849317 81.4464 1.08287 94.6806 14.448C119.555 39.5688 131.869 74.0482 103.547 78.4813C75.2243 82.9144 33.849 91.7805 8.97449 66.6598C-3.45873 54.1035 -1.00154 38.5937 4.56676 26.22C10.4593 13.1259 30.0929 1.24586 44.4185 0.269131Z" transform="matrix(0.9455186 0.3255681 -0.3255681 0.9455186 27.24402 0)"/><path id="Rectangle-Copy" fill="#74ACFF" stroke="none" d="M50.4551 1.14696C73.1033 -1.54068 105.613 -0.946216 125.515 19.1533C158.491 52.4552 174.815 98.1636 137.269 104.04C99.7227 109.917 44.8727 121.671 11.8972 88.369C-7.2351 69.0472 0.229951 44.45 9.86936 27.2033C16.8748 14.6693 36.1963 2.83904 50.4551 1.14696Z" transform="matrix(0.9455186 0.3255681 -0.3255681 0.9455186 173.1047 0)"/><path id="Rectangle-Copy-2" fill="#1673FF" stroke="none" d="M42.2683 0.0751664C56.2004 -0.469474 72.7588 1.76469 83.6512 12.765C105.628 34.9594 116.508 65.4223 91.4845 69.339C66.4614 73.2557 29.9059 81.089 7.92905 58.8946C-2.13852 48.7273 -1.15571 36.3683 2.86587 25.9592C8.04066 12.5653 27.9204 0.636062 42.2683 0.0751664Z" transform="matrix(0.9455186 0.3255681 -0.3255681 0.9455186 318.9653 0)"/><path id="Rectangle-Copy-3" fill="#74ACFF" stroke="none" d="M46.471 0.525446C65.1019 -1.13646 89.6978 0.41068 105.185 16.0509C132.819 43.9587 146.499 82.2633 115.035 87.1882C83.5699 92.1131 37.6043 101.963 9.97015 74.0552C-4.73084 59.2087 -0.693071 40.6454 6.30645 26.5216C12.6824 13.656 32.1689 1.80121 46.471 0.525446Z" transform="matrix(0.9455186 0.3255681 -0.3255681 0.9455186 448.4541 0)"/></g></g><g id="Group-2-Copy-3" transform="translate(-149.5515 447.3925)"><g id="Group" transform="translate(1.907349E-06 0)"><path id="Rectangle-Copy" fill="#74ACFF" stroke="none" d="M50.4551 1.14696C73.1033 -1.54068 105.613 -0.946216 125.515 19.1533C158.491 52.4552 174.815 98.1636 137.269 104.04C99.7227 109.917 44.8727 121.671 11.8972 88.369C-7.2351 69.0472 0.229951 44.45 9.86936 27.2033C16.8748 14.6693 36.1963 2.83904 50.4551 1.14696Z" transform="matrix(0.9455186 0.3255681 -0.3255681 0.9455186 173.1047 0)"/><path id="Rectangle-Copy-2" fill="#1673FF" stroke="none" d="M42.2683 0.0751664C56.2004 -0.469474 72.7588 1.76469 83.6512 12.765C105.628 34.9594 116.508 65.4223 91.4845 69.339C66.4614 73.2557 29.9059 81.089 7.92905 58.8946C-2.13852 48.7273 -1.15571 36.3683 2.86587 25.9592C8.04066 12.5653 27.9204 0.636062 42.2683 0.0751664Z" transform="matrix(0.9455186 0.3255681 -0.3255681 0.9455186 318.9653 0)"/><path id="Rectangle-Copy-3" fill="#74ACFF" stroke="none" d="M46.471 0.525446C65.1019 -1.13646 89.6978 0.41068 105.185 16.0509C132.819 43.9587 146.499 82.2633 115.035 87.1882C83.5699 92.1131 37.6043 101.963 9.97015 74.0552C-4.73084 59.2087 -0.693071 40.6454 6.30645 26.5216C12.6824 13.656 32.1689 1.80121 46.471 0.525446Z" transform="matrix(0.9455186 0.3255681 -0.3255681 0.9455186 448.4541 0)"/><path id="Rectangle-Copy-4" fill="#1673FF" stroke="none" d="M46.4709 0.525442C65.1018 -1.13647 89.6977 0.41067 105.185 16.0509C132.819 43.9586 146.499 82.2633 115.034 87.1882C83.5698 92.1131 37.6042 101.963 9.97015 74.0552C-4.73087 59.2087 -0.69311 40.6454 6.30641 26.5216C12.6824 13.656 32.1689 1.80121 46.4709 0.525442Z" transform="matrix(-0.9455186 0.3255682 0.3255682 0.9455186 705.5091 0)"/></g><g id="Group-Copy" transform="translate(743.7758 0)"><path id="Rectangle" fill="#1673FF" stroke="none" d="M44.4185 0.269131C60.8227 -0.849317 81.4464 1.08287 94.6806 14.448C119.555 39.5688 131.869 74.0482 103.547 78.4813C75.2243 82.9144 33.849 91.7805 8.97449 66.6598C-3.45873 54.1035 -1.00154 38.5937 4.56676 26.22C10.4593 13.1259 30.0929 1.24586 44.4185 0.269131Z" transform="matrix(0.9455186 0.3255681 -0.3255681 0.9455186 27.24402 0)"/><path id="Rectangle-Copy" fill="#74ACFF" stroke="none" d="M50.4551 1.14696C73.1033 -1.54068 105.613 -0.946216 125.515 19.1533C158.491 52.4552 174.815 98.1636 137.269 104.04C99.7227 109.917 44.8727 121.671 11.8972 88.369C-7.2351 69.0472 0.229951 44.45 9.86936 27.2033C16.8748 14.6693 36.1963 2.83904 50.4551 1.14696Z" transform="matrix(0.9455186 0.3255681 -0.3255681 0.9455186 173.1047 0)"/><path id="Rectangle-Copy-2" fill="#1673FF" stroke="none" d="M42.2683 0.0751664C56.2004 -0.469474 72.7588 1.76469 83.6512 12.765C105.628 34.9594 116.508 65.4223 91.4845 69.339C66.4614 73.2557 29.9059 81.089 7.92905 58.8946C-2.13852 48.7273 -1.15571 36.3683 2.86587 25.9592C8.04066 12.5653 27.9204 0.636062 42.2683 0.0751664Z" transform="matrix(0.9455186 0.3255681 -0.3255681 0.9455186 318.9653 0)"/></g></g><g id="Group-2-Copy-4" transform="translate(-111.5515 611.9999)"><g id="Group" transform="translate(1.907349E-06 0)"><path id="Rectangle" fill="#1673FF" stroke="none" d="M44.4185 0.269131C60.8227 -0.849317 81.4464 1.08287 94.6806 14.448C119.555 39.5688 131.869 74.0482 103.547 78.4813C75.2243 82.9144 33.849 91.7805 8.97449 66.6598C-3.45873 54.1035 -1.00154 38.5937 4.56676 26.22C10.4593 13.1259 30.0929 1.24586 44.4185 0.269131Z" transform="matrix(0.9455186 0.3255681 -0.3255681 0.9455186 27.24405 0)"/><path id="Rectangle-Copy" fill="#74ACFF" stroke="none" d="M50.4551 1.14696C73.1033 -1.54068 105.613 -0.946216 125.515 19.1533C158.491 52.4552 174.815 98.1636 137.269 104.04C99.7227 109.917 44.8727 121.671 11.8972 88.369C-7.2351 69.0472 0.229951 44.45 9.86936 27.2033C16.8748 14.6693 36.1963 2.83904 50.4551 1.14696Z" transform="matrix(0.9455186 0.3255681 -0.3255681 0.9455186 173.1047 0)"/><path id="Rectangle-Copy-2" fill="#1673FF" stroke="none" d="M42.2683 0.0751664C56.2004 -0.469474 72.7588 1.76469 83.6512 12.765C105.628 34.9594 116.508 65.4223 91.4845 69.339C66.4614 73.2557 29.9059 81.089 7.92905 58.8946C-2.13852 48.7273 -1.15571 36.3683 2.86587 25.9592C8.04066 12.5653 27.9204 0.636062 42.2683 0.0751664Z" transform="matrix(0.9455186 0.3255681 -0.3255681 0.9455186 318.9653 0)"/><path id="Rectangle-Copy-3" fill="#74ACFF" stroke="none" d="M46.471 0.525446C65.1019 -1.13646 89.6978 0.41068 105.185 16.0509C132.819 43.9587 146.499 82.2633 115.035 87.1882C83.5699 92.1131 37.6043 101.963 9.97015 74.0552C-4.73084 59.2087 -0.693071 40.6454 6.30645 26.5216C12.6824 13.656 32.1689 1.80121 46.471 0.525446Z" transform="matrix(0.9455186 0.3255681 -0.3255681 0.9455186 448.4541 0)"/><path id="Rectangle-Copy-4" fill="#1673FF" stroke="none" d="M46.4709 0.525442C65.1018 -1.13647 89.6977 0.41067 105.185 16.0509C132.819 43.9586 146.499 82.2633 115.034 87.1882C83.5698 92.1131 37.6042 101.963 9.97015 74.0552C-4.73087 59.2087 -0.69311 40.6454 6.30641 26.5216C12.6824 13.656 32.1689 1.80121 46.4709 0.525442Z" transform="matrix(-0.9455186 0.3255682 0.3255682 0.9455186 705.5092 0)"/></g><g id="Group-Copy" transform="translate(743.7758 0)"><path id="Rectangle" fill="#1673FF" stroke="none" d="M44.4185 0.269131C60.8227 -0.849317 81.4464 1.08287 94.6806 14.448C119.555 39.5688 131.869 74.0482 103.547 78.4813C75.2243 82.9144 33.849 91.7805 8.97449 66.6598C-3.45873 54.1035 -1.00154 38.5937 4.56676 26.22C10.4593 13.1259 30.0929 1.24586 44.4185 0.269131Z" transform="matrix(0.9455186 0.3255681 -0.3255681 0.9455186 27.24402 0)"/><path id="Rectangle-Copy" fill="#74ACFF" stroke="none" d="M50.4551 1.14696C73.1033 -1.54068 105.613 -0.946216 125.515 19.1533C158.491 52.4552 174.815 98.1636 137.269 104.04C99.7227 109.917 44.8727 121.671 11.8972 88.369C-7.2351 69.0472 0.229951 44.45 9.86936 27.2033C16.8748 14.6693 36.1963 2.83904 50.4551 1.14696Z" transform="matrix(0.9455186 0.3255681 -0.3255681 0.9455186 173.1047 0)"/><path id="Rectangle-Copy-2" fill="#1673FF" stroke="none" d="M42.2683 0.0751664C56.2004 -0.469474 72.7588 1.76469 83.6512 12.765C105.628 34.9594 116.508 65.4223 91.4845 69.339C66.4614 73.2557 29.9059 81.089 7.92905 58.8946C-2.13852 48.7273 -1.15571 36.3683 2.86587 25.9592C8.04066 12.5653 27.9204 0.636062 42.2683 0.0751664Z" transform="matrix(0.9455186 0.3255681 -0.3255681 0.9455186 318.9653 0)"/></g></g><g id="Group-2-Copy-5" transform="translate(-308.5515 768.3925)"><g id="Group"><path id="Rectangle-Copy" fill="#74ACFF" stroke="none" d="M50.4551 1.14696C73.1033 -1.54068 105.613 -0.946216 125.515 19.1533C158.491 52.4552 174.815 98.1636 137.269 104.04C99.7227 109.917 44.8727 121.671 11.8972 88.369C-7.2351 69.0472 0.229951 44.45 9.86936 27.2033C16.8748 14.6693 36.1963 2.83904 50.4551 1.14696Z" transform="matrix(0.9455186 0.3255681 -0.3255681 0.9455186 173.1047 0)"/><path id="Rectangle-Copy-2" fill="#1673FF" stroke="none" d="M42.2683 0.0751664C56.2004 -0.469474 72.7588 1.76469 83.6512 12.765C105.628 34.9594 116.508 65.4223 91.4845 69.339C66.4614 73.2557 29.9059 81.089 7.92905 58.8946C-2.13852 48.7273 -1.15571 36.3683 2.86587 25.9592C8.04066 12.5653 27.9204 0.636062 42.2683 0.0751664Z" transform="matrix(0.9455186 0.3255681 -0.3255681 0.9455186 318.9653 0)"/><path id="Rectangle-Copy-3" fill="#74ACFF" stroke="none" d="M46.471 0.525446C65.1019 -1.13646 89.6978 0.41068 105.185 16.0509C132.819 43.9587 146.499 82.2633 115.035 87.1882C83.5699 92.1131 37.6043 101.963 9.97015 74.0552C-4.73084 59.2087 -0.693071 40.6454 6.30645 26.5216C12.6824 13.656 32.1689 1.80121 46.471 0.525446Z" transform="matrix(0.9455186 0.3255681 -0.3255681 0.9455186 448.4541 0)"/><path id="Rectangle-Copy-4" fill="#1673FF" stroke="none" d="M46.4709 0.525442C65.1018 -1.13647 89.6977 0.41067 105.185 16.0509C132.819 43.9586 146.499 82.2633 115.034 87.1882C83.5698 92.1131 37.6042 101.963 9.97015 74.0552C-4.73087 59.2087 -0.69311 40.6454 6.30641 26.5216C12.6824 13.656 32.1689 1.80121 46.4709 0.525442Z" transform="matrix(-0.9455186 0.3255682 0.3255682 0.9455186 705.5092 0)"/></g><g id="Group-Copy" transform="translate(743.7758 0)"><path id="Rectangle" fill="#1673FF" stroke="none" d="M44.4185 0.269131C60.8227 -0.849317 81.4464 1.08287 94.6806 14.448C119.555 39.5688 131.869 74.0482 103.547 78.4813C75.2243 82.9144 33.849 91.7805 8.97449 66.6598C-3.45873 54.1035 -1.00154 38.5937 4.56676 26.22C10.4593 13.1259 30.0929 1.24586 44.4185 0.269131Z" transform="matrix(0.9455186 0.3255681 -0.3255681 0.9455186 27.24402 0)"/><path id="Rectangle-Copy" fill="#74ACFF" stroke="none" d="M50.4551 1.14696C73.1033 -1.54068 105.613 -0.946216 125.515 19.1533C158.491 52.4552 174.815 98.1636 137.269 104.04C99.7227 109.917 44.8727 121.671 11.8972 88.369C-7.2351 69.0472 0.229951 44.45 9.86936 27.2033C16.8748 14.6693 36.1963 2.83904 50.4551 1.14696Z" transform="matrix(0.9455186 0.3255681 -0.3255681 0.9455186 173.1047 0)"/><path id="Rectangle-Copy-2" fill="#1673FF" stroke="none" d="M42.2683 0.0751664C56.2004 -0.469474 72.7588 1.76469 83.6512 12.765C105.628 34.9594 116.508 65.4223 91.4845 69.339C66.4614 73.2557 29.9059 81.089 7.92905 58.8946C-2.13852 48.7273 -1.15571 36.3683 2.86587 25.9592C8.04066 12.5653 27.9204 0.636062 42.2683 0.0751664Z" transform="matrix(0.9455186 0.3255681 -0.3255681 0.9455186 318.9653 0)"/><path id="Rectangle-Copy-3" fill="#74ACFF" stroke="none" d="M46.471 0.525446C65.1019 -1.13646 89.6978 0.41068 105.185 16.0509C132.819 43.9587 146.499 82.2633 115.035 87.1882C83.5699 92.1131 37.6043 101.963 9.97015 74.0552C-4.73084 59.2087 -0.693071 40.6454 6.30645 26.5216C12.6824 13.656 32.1689 1.80121 46.471 0.525446Z" transform="matrix(0.9455186 0.3255681 -0.3255681 0.9455186 448.4541 0)"/></g></g><g id="Group-2-Copy-6" transform="translate(-179 900)"><g id="Group"><path id="Rectangle-Copy" fill="#74ACFF" stroke="none" d="M50.4551 1.14696C73.1033 -1.54068 105.613 -0.946216 125.515 19.1533C158.491 52.4552 174.815 98.1636 137.269 104.04C99.7227 109.917 44.8727 121.671 11.8972 88.369C-7.2351 69.0472 0.229951 44.45 9.86936 27.2033C16.8748 14.6693 36.1963 2.83904 50.4551 1.14696Z" transform="matrix(0.9455186 0.3255681 -0.3255681 0.9455186 173.1047 0)"/><path id="Rectangle-Copy-2" fill="#1673FF" stroke="none" d="M42.2683 0.0751664C56.2004 -0.469474 72.7588 1.76469 83.6512 12.765C105.628 34.9594 116.508 65.4223 91.4845 69.339C66.4614 73.2557 29.9059 81.089 7.92905 58.8946C-2.13852 48.7273 -1.15571 36.3683 2.86587 25.9592C8.04066 12.5653 27.9204 0.636062 42.2683 0.0751664Z" transform="matrix(0.9455186 0.3255681 -0.3255681 0.9455186 318.9653 0)"/><path id="Rectangle-Copy-3" fill="#74ACFF" stroke="none" d="M46.471 0.525446C65.1019 -1.13646 89.6978 0.41068 105.185 16.0509C132.819 43.9587 146.499 82.2633 115.035 87.1882C83.5699 92.1131 37.6043 101.963 9.97015 74.0552C-4.73084 59.2087 -0.693071 40.6454 6.30645 26.5216C12.6824 13.656 32.1689 1.80121 46.471 0.525446Z" transform="matrix(0.9455186 0.3255681 -0.3255681 0.9455186 448.4541 0)"/><path id="Rectangle-Copy-4" fill="#1673FF" stroke="none" d="M46.4709 0.525442C65.1018 -1.13647 89.6977 0.41067 105.185 16.0509C132.819 43.9586 146.499 82.2633 115.034 87.1882C83.5698 92.1131 37.6042 101.963 9.97015 74.0552C-4.73087 59.2087 -0.69311 40.6454 6.30641 26.5216C12.6824 13.656 32.1689 1.80121 46.4709 0.525442Z" transform="matrix(-0.9455186 0.3255682 0.3255682 0.9455186 705.5092 0)"/></g><g id="Group-Copy" transform="translate(743.7758 0)"><path id="Rectangle" fill="#1673FF" stroke="none" d="M44.4185 0.269131C60.8227 -0.849317 81.4464 1.08287 94.6806 14.448C119.555 39.5688 131.869 74.0482 103.547 78.4813C75.2243 82.9144 33.849 91.7805 8.97449 66.6598C-3.45873 54.1035 -1.00154 38.5937 4.56676 26.22C10.4593 13.1259 30.0929 1.24586 44.4185 0.269131Z" transform="matrix(0.9455186 0.3255681 -0.3255681 0.9455186 27.24402 0)"/><path id="Rectangle-Copy" fill="#74ACFF" stroke="none" d="M50.4551 1.14696C73.1033 -1.54068 105.613 -0.946216 125.515 19.1533C158.491 52.4552 174.815 98.1636 137.269 104.04C99.7227 109.917 44.8727 121.671 11.8972 88.369C-7.2351 69.0472 0.229951 44.45 9.86936 27.2033C16.8748 14.6693 36.1963 2.83904 50.4551 1.14696Z" transform="matrix(0.9455186 0.3255681 -0.3255681 0.9455186 173.1047 0)"/><path id="Rectangle-Copy-2" fill="#1673FF" stroke="none" d="M42.2683 0.0751664C56.2004 -0.469474 72.7588 1.76469 83.6512 12.765C105.628 34.9594 116.508 65.4223 91.4845 69.339C66.4614 73.2557 29.9059 81.089 7.92905 58.8946C-2.13852 48.7273 -1.15571 36.3683 2.86587 25.9592C8.04066 12.5653 27.9204 0.636062 42.2683 0.0751664Z" transform="matrix(0.9455186 0.3255681 -0.3255681 0.9455186 318.9653 0)"/><path id="Rectangle-Copy-3" fill="#74ACFF" stroke="none" d="M46.471 0.525446C65.1019 -1.13646 89.6978 0.41068 105.185 16.0509C132.819 43.9587 146.499 82.2633 115.035 87.1882C83.5699 92.1131 37.6043 101.963 9.97015 74.0552C-4.73084 59.2087 -0.693071 40.6454 6.30645 26.5216C12.6824 13.656 32.1689 1.80121 46.471 0.525446Z" transform="matrix(0.9455186 0.3255681 -0.3255681 0.9455186 448.4541 0)"/></g></g></g></svg>